<svg width="29" height="20" viewBox="0 0 29 20" fill="none" xmlns="http://www.w3.org/2000/svg">
    <rect x="0.5" y="0.5" width="28" height="19" rx="3.5" fill="white" stroke="#E9EDF0"/>
    <path fill-rule="evenodd" clip-rule="evenodd" d="M13.6999 13.1327V10.6152H14.9918C15.5212 10.6152 15.968 10.4368 16.3322 10.085L16.4197 9.99578C17.085 9.2673 17.0413 8.13246 16.3322 7.4585C15.9777 7.10169 15.492 6.90842 14.9918 6.91833H12.918V13.1327H13.6999ZM13.7 9.85207V7.68151H15.0115C15.2932 7.68151 15.5604 7.79053 15.7596 7.98876C16.1822 8.40503 16.1919 9.09882 15.7838 9.52996C15.5847 9.74305 15.303 9.86199 15.0115 9.85207H13.7ZM20.0671 9.21281C19.732 8.9006 19.2754 8.74202 18.6975 8.74202C17.9544 8.74202 17.3959 9.01954 17.0268 9.56961L17.7164 10.0107C17.969 9.63404 18.3138 9.44572 18.7509 9.44572C19.0277 9.44572 19.2949 9.54979 19.5037 9.7381C19.7077 9.91651 19.8243 10.1742 19.8243 10.4468V10.6301C19.5231 10.4616 19.1443 10.3724 18.6781 10.3724C18.1341 10.3724 17.697 10.5013 17.3716 10.7639C17.0462 11.0266 16.8811 11.3735 16.8811 11.8145C16.8714 12.2159 17.0413 12.5975 17.3425 12.8552C17.6484 13.1327 18.037 13.2715 18.4935 13.2715C19.0326 13.2715 19.46 13.0286 19.7854 12.543H19.8194V13.1327H20.5673V10.5112C20.5673 9.96111 20.4022 9.52501 20.0671 9.21281ZM17.9448 12.3497C17.7845 12.2307 17.6874 12.0375 17.6874 11.8293C17.6874 11.5964 17.7943 11.4032 18.0031 11.2495C18.2169 11.0959 18.484 11.0166 18.7998 11.0166C19.2369 11.0117 19.577 11.1108 19.8198 11.309C19.8198 11.646 19.6887 11.9384 19.4312 12.1861C19.1981 12.424 18.8823 12.5578 18.552 12.5578C18.3334 12.5628 18.1197 12.4884 17.9448 12.3497ZM22.2478 15.001L24.8607 8.88079H24.0107L22.8014 11.9335H22.7869L21.5484 8.88079H20.6985L22.4129 12.8602L21.4415 15.001H22.2478Z" fill="#3C4043"/>
    <path d="M10.9966 10.0692C10.9966 9.8264 10.9772 9.58357 10.9383 9.3457H7.64062V10.7184H9.52989C9.45218 11.1595 9.19963 11.5559 8.83052 11.8037V12.6957H9.95728C10.6178 12.0763 10.9966 11.1595 10.9966 10.0692Z" fill="#4285F4"/>
    <path d="M7.6424 13.558C8.58461 13.558 9.38111 13.2408 9.95906 12.6957L8.8323 11.8037C8.51661 12.0218 8.1135 12.1457 7.6424 12.1457C6.72934 12.1457 5.95712 11.5163 5.68029 10.6738H4.51953V11.5956C5.11205 12.7998 6.32137 13.558 7.6424 13.558Z" fill="#34A853"/>
    <path d="M5.68071 10.6732C5.53499 10.2322 5.53499 9.75147 5.68071 9.30546V8.38867H4.51977C4.01945 9.39467 4.01945 10.584 4.51977 11.59L5.68071 10.6732Z" fill="#FBBC04"/>
    <path d="M7.6424 7.83445C8.14264 7.82454 8.62346 8.0178 8.98286 8.36965L9.98334 7.34879C9.34711 6.74421 8.51176 6.41218 7.6424 6.42209C6.32137 6.42209 5.11205 7.18526 4.51953 8.38948L5.68029 9.31123C5.95712 8.46381 6.72934 7.83445 7.6424 7.83445Z" fill="#EA4335"/>
</svg>
